<?xml version="1.0" standalone="no"?>
<!DOCTYPE svg PUBLIC "-//W3C//DTD SVG 20010904//EN"
 "http://www.w3.org/TR/2001/REC-SVG-20010904/DTD/svg10.dtd">
<svg version="1.0" xmlns="http://www.w3.org/2000/svg"
 width="123.000000pt" height="123.000000pt" viewBox="0 0 123.000000 123.000000"
 preserveAspectRatio="xMidYMid meet">
<metadata>
Created by potrace 1.14, written by Peter Selinger 2001-2017
</metadata>
<g transform="translate(0.000000,123.000000) scale(0.100000,-0.100000)"
fill="#000000" stroke="none">
<path d="M212 1200 c-36 -94 -14 -212 53 -280 l36 -37 -30 -48 c-33 -52 -56
-115 -66 -184 -4 -24 -20 -62 -36 -86 -56 -82 -92 -184 -93 -258 -1 -66 0 -70
33 -99 30 -27 38 -30 79 -24 51 7 77 26 87 63 6 27 -14 68 -48 92 -15 11 -17
20 -12 50 4 20 10 39 14 44 4 4 25 -20 46 -53 22 -34 53 -72 71 -85 30 -23 31
-25 31 -109 1 -84 0 -85 -27 -94 -32 -12 -66 -45 -73 -74 -5 -19 -1 -20 103
-16 135 4 139 8 140 120 l0 77 83 -1 c45 -1 89 1 97 3 17 4 17 2 19 -93 2 -99
15 -109 147 -107 94 1 101 3 97 20 -7 25 -51 68 -78 75 -21 5 -22 11 -21 93
l1 87 45 46 c25 25 55 64 65 86 19 39 20 40 32 19 21 -37 15 -70 -17 -100 -57
-54 -46 -114 25 -137 66 -22 129 13 141 77 13 70 -40 238 -100 317 -12 17 -28
60 -35 96 -13 65 -37 121 -74 173 l-19 29 35 36 c54 57 70 98 70 174 0 36 -6
81 -13 98 l-13 32 -18 -57 c-43 -141 -136 -200 -252 -160 -61 20 -172 21 -241
1 -66 -19 -118 -13 -166 20 -42 28 -67 68 -91 143 -16 53 -18 55 -27 31z m293
-440 c36 -18 84 -74 72 -86 -9 -10 -80 -11 -115 -2 -42 11 -71 32 -96 70 -13
20 -14 27 -4 31 31 12 104 6 143 -13z m359 11 c18 -7 16 -11 -17 -47 -20 -22
-52 -45 -71 -51 -32 -10 -113 -9 -123 1 -3 3 3 18 13 35 33 55 134 87 198 62z
m-261 -258 l14 -27 12 22 c15 28 47 28 62 0 10 -19 12 -19 21 -5 11 21 58 23
58 2 0 -18 5 -19 29 -4 11 8 24 8 34 3 14 -8 14 -13 -3 -51 -30 -69 -119 -142
-120 -100 -1 6 -12 -1 -26 -18 l-25 -30 -24 28 -24 27 -17 -32 -17 -32 -27 32
c-22 26 -29 30 -33 18 -9 -23 -22 -20 -62 16 -33 28 -85 113 -85 137 0 18 54
21 68 3 12 -15 13 -15 18 4 8 29 52 30 63 1 8 -20 10 -21 16 -4 6 15 26 29 52
36 1 1 9 -11 16 -26z"/>
</g>
</svg>
